HIERARCHY
ROOT Root
{
	OFFSET 0.000000 1.235290 9.556880 
	CHANNELS 6 Xposition Yposition Zposition Xrotation Yrotation Zrotation
	JOINT Spine1
	{
		OFFSET 0.000000 -0.335706 0.417760 
		CHANNELS 3 Xrotation Yrotation Zrotation
		JOINT Spine2
		{
			OFFSET 0.000000 0.201896 1.005360 
			CHANNELS 3 Xrotation Yrotation Zrotation
			JOINT Spine3
			{
				OFFSET 0.000000 0.371400 1.223500 
				CHANNELS 3 Xrotation Yrotation Zrotation
				JOINT Neck
				{
					OFFSET 0.000000 -0.271320 1.966900 
					CHANNELS 3 Xrotation Yrotation Zrotation
					JOINT Head
					{
						OFFSET 0.000000 -0.007180 1.071600 
						CHANNELS 3 Xrotation Yrotation Zrotation
						JOINT __Jaw
						{
							OFFSET 0.000000 0.111500 1.311400 
							CHANNELS 3 Xrotation Yrotation Zrotation
							JOINT Jaw
							{
								OFFSET 0.000000 -0.590716 -1.325200 
								CHANNELS 3 Xrotation Yrotation Zrotation
								JOINT __Tongue1
								{
									OFFSET 0.000000 -0.762537 -0.667300 
									CHANNELS 3 Xrotation Yrotation Zrotation
									End Site
									{
										OFFSET 0.000000 0.712770 0.336600 
									}
								}
								JOINT Tongue1
								{
									OFFSET 0.000000 -0.762537 -0.667300 
									CHANNELS 3 Xrotation Yrotation Zrotation
									JOINT Tongue2
									{
										OFFSET 0.000000 0.440548 0.404301 
										CHANNELS 3 Xrotation Yrotation Zrotation
										JOINT Tongue3
										{
											OFFSET 0.000000 -0.222683 -0.007800 
											CHANNELS 3 Xrotation Yrotation Zrotation
											End Site
											{
												OFFSET 0.000000 -0.137613 -0.039500 
											}
										}
									}
								}
							}
						}
						JOINT __Eye_L
						{
							OFFSET 0.000000 0.111500 1.311400 
							CHANNELS 3 Xrotation Yrotation Zrotation
							JOINT Eye_L
							{
								OFFSET 0.286939 -1.150516 -0.965200 
								CHANNELS 3 Xrotation Yrotation Zrotation
								End Site
								{
									OFFSET 0.007035 -0.392999 0.015301 
								}
							}
						}
						JOINT __Eye_R
						{
							OFFSET 0.000000 0.111500 1.311400 
							CHANNELS 3 Xrotation Yrotation Zrotation
							JOINT Eye_R
							{
								OFFSET -0.286939 -1.150516 -0.965200 
								CHANNELS 3 Xrotation Yrotation Zrotation
								End Site
								{
									OFFSET -0.007035 -0.392999 0.015301 
								}
							}
						}
					}
				}
				JOINT __Clavicle_L
				{
					OFFSET 0.000000 -0.271320 1.966900 
					CHANNELS 3 Xrotation Yrotation Zrotation
					JOINT Clavicle_L
					{
						OFFSET 0.252495 -0.592680 -0.680099 
						CHANNELS 3 Xrotation Yrotation Zrotation
						JOINT UpArm_L
						{
							OFFSET 1.471835 0.544940 -0.006500 
							CHANNELS 3 Xrotation Yrotation Zrotation
							JOINT LoArm_L
							{
								OFFSET 1.972350 0.157380 -0.189700 
								CHANNELS 3 Xrotation Yrotation Zrotation
								JOINT Hand_L
								{
									OFFSET 2.379560 -0.226010 -0.082600 
									CHANNELS 3 Xrotation Yrotation Zrotation
									JOINT __Thumb1_L
									{
										OFFSET 1.011520 -0.180094 0.059500 
										CHANNELS 3 Xrotation Yrotation Zrotation
										JOINT Thumb1_L
										{
											OFFSET -0.742610 -0.068096 -0.139400 
											CHANNELS 3 Xrotation Yrotation Zrotation
											JOINT Thumb2_L
											{
												OFFSET 0.294840 -0.171231 -0.196401 
												CHANNELS 3 Xrotation Yrotation Zrotation
												JOINT Thumb3_L
												{
													OFFSET 0.301650 -0.145173 -0.003699 
													CHANNELS 3 Xrotation Yrotation Zrotation
													End Site
													{
														OFFSET 0.352750 -0.040702 -0.031401 
													}
												}
											}
										}
									}
									JOINT __Index1_L
									{
										OFFSET 1.011520 -0.180094 0.059500 
										CHANNELS 3 Xrotation Yrotation Zrotation
										JOINT Index1_L
										{
											OFFSET -0.020550 -0.189660 -0.032800 
											CHANNELS 3 Xrotation Yrotation Zrotation
											JOINT Index2_L
											{
												OFFSET 0.260730 -0.033503 -0.029100 
												CHANNELS 3 Xrotation Yrotation Zrotation
												JOINT Index3_L
												{
													OFFSET 0.208380 -0.017383 -0.010500 
													CHANNELS 3 Xrotation Yrotation Zrotation
													End Site
													{
														OFFSET 0.264640 -0.009090 -0.002500 
													}
												}
											}
										}
									}
									JOINT Middle1_L
									{
										OFFSET 1.011520 -0.180094 0.059500 
										CHANNELS 3 Xrotation Yrotation Zrotation
										JOINT Middle2_L
										{
											OFFSET 0.316330 0.002049 -0.007900 
											CHANNELS 3 Xrotation Yrotation Zrotation
											JOINT Middle3_L
											{
												OFFSET 0.267600 -0.007631 -0.029200 
												CHANNELS 3 Xrotation Yrotation Zrotation
												End Site
												{
													OFFSET 0.242780 0.003143 -0.019500 
												}
											}
										}
									}
									JOINT __Ring1_L
									{
										OFFSET 1.011520 -0.180094 0.059500 
										CHANNELS 3 Xrotation Yrotation Zrotation
										JOINT Ring1_L
										{
											OFFSET -0.013760 0.218464 -0.042000 
											CHANNELS 3 Xrotation Yrotation Zrotation
											JOINT Ring2_L
											{
												OFFSET 0.289610 -0.005100 -0.009501 
												CHANNELS 3 Xrotation Yrotation Zrotation
												JOINT Ring3_L
												{
													OFFSET 0.226630 0.000370 -0.008200 
													CHANNELS 3 Xrotation Yrotation Zrotation
													End Site
													{
														OFFSET 0.238650 -0.005430 -0.004400 
													}
												}
											}
										}
									}
									JOINT __Pinky1_L
									{
										OFFSET 1.011520 -0.180094 0.059500 
										CHANNELS 3 Xrotation Yrotation Zrotation
										JOINT Pinky1_L
										{
											OFFSET -0.011150 0.413174 -0.115499 
											CHANNELS 3 Xrotation Yrotation Zrotation
											JOINT Pinky2_L
											{
												OFFSET 0.234040 0.008980 -0.037001 
												CHANNELS 3 Xrotation Yrotation Zrotation
												JOINT Pinky3_L
												{
													OFFSET 0.128020 -0.000440 -0.009500 
													CHANNELS 3 Xrotation Yrotation Zrotation
													End Site
													{
														OFFSET 0.152970 -0.016250 0.002399 
													}
												}
											}
										}
									}
								}
							}
						}
					}
				}
				JOINT __Clavicle_R
				{
					OFFSET 0.000000 -0.271320 1.966900 
					CHANNELS 3 Xrotation Yrotation Zrotation
					JOINT Clavicle_R
					{
						OFFSET -0.252495 -0.592680 -0.680099 
						CHANNELS 3 Xrotation Yrotation Zrotation
						JOINT UpArm_R
						{
							OFFSET -1.471835 0.544940 -0.006500 
							CHANNELS 3 Xrotation Yrotation Zrotation
							JOINT LoArm_R
							{
								OFFSET -1.972350 0.157380 -0.189700 
								CHANNELS 3 Xrotation Yrotation Zrotation
								JOINT Hand_R
								{
									OFFSET -2.379560 -0.226010 -0.082600 
									CHANNELS 3 Xrotation Yrotation Zrotation
									JOINT __Thumb1_R
									{
										OFFSET -1.011520 -0.180094 0.059500 
										CHANNELS 3 Xrotation Yrotation Zrotation
										JOINT Thumb1_R
										{
											OFFSET 0.742610 -0.068096 -0.139400 
											CHANNELS 3 Xrotation Yrotation Zrotation
											JOINT Thumb2_R
											{
												OFFSET -0.294840 -0.171231 -0.196401 
												CHANNELS 3 Xrotation Yrotation Zrotation
												JOINT Thumb3_R
												{
													OFFSET -0.301650 -0.145173 -0.003699 
													CHANNELS 3 Xrotation Yrotation Zrotation
													End Site
													{
														OFFSET -0.352750 -0.040702 -0.031401 
													}
												}
											}
										}
									}
									JOINT __Index1_R
									{
										OFFSET -1.011520 -0.180094 0.059500 
										CHANNELS 3 Xrotation Yrotation Zrotation
										JOINT Index1_R
										{
											OFFSET 0.020550 -0.189660 -0.032800 
											CHANNELS 3 Xrotation Yrotation Zrotation
											JOINT Index2_R
											{
												OFFSET -0.260730 -0.033503 -0.029100 
												CHANNELS 3 Xrotation Yrotation Zrotation
												JOINT Index3_R
												{
													OFFSET -0.208380 -0.017383 -0.010500 
													CHANNELS 3 Xrotation Yrotation Zrotation
													End Site
													{
														OFFSET -0.264640 -0.009090 -0.002500 
													}
												}
											}
										}
									}
									JOINT Middle1_R
									{
										OFFSET -1.011520 -0.180094 0.059500 
										CHANNELS 3 Xrotation Yrotation Zrotation
										JOINT Middle2_R
										{
											OFFSET -0.316330 0.002049 -0.007900 
											CHANNELS 3 Xrotation Yrotation Zrotation
											JOINT Middle3_R
											{
												OFFSET -0.267600 -0.007631 -0.029200 
												CHANNELS 3 Xrotation Yrotation Zrotation
												End Site
												{
													OFFSET -0.242780 0.003143 -0.019500 
												}
											}
										}
									}
									JOINT __Ring1_R
									{
										OFFSET -1.011520 -0.180094 0.059500 
										CHANNELS 3 Xrotation Yrotation Zrotation
										JOINT Ring1_R
										{
											OFFSET 0.013760 0.218464 -0.042000 
											CHANNELS 3 Xrotation Yrotation Zrotation
											JOINT Ring2_R
											{
												OFFSET -0.289610 -0.005100 -0.009501 
												CHANNELS 3 Xrotation Yrotation Zrotation
												JOINT Ring3_R
												{
													OFFSET -0.226630 0.000370 -0.008200 
													CHANNELS 3 Xrotation Yrotation Zrotation
													End Site
													{
														OFFSET -0.238650 -0.005430 -0.004400 
													}
												}
											}
										}
									}
									JOINT __Pinky1_R
									{
										OFFSET -1.011520 -0.180094 0.059500 
										CHANNELS 3 Xrotation Yrotation Zrotation
										JOINT Pinky1_R
										{
											OFFSET 0.011150 0.413174 -0.115499 
											CHANNELS 3 Xrotation Yrotation Zrotation
											JOINT Pinky2_R
											{
												OFFSET -0.234040 0.008980 -0.037001 
												CHANNELS 3 Xrotation Yrotation Zrotation
												JOINT Pinky3_R
												{
													OFFSET -0.128020 -0.000440 -0.009500 
													CHANNELS 3 Xrotation Yrotation Zrotation
													End Site
													{
														OFFSET -0.152970 -0.016250 0.002399 
													}
												}
											}
										}
									}
								}
							}
						}
					}
				}
			}
		}
	}
	JOINT Hips
	{
		OFFSET 0.000000 -0.335706 0.417760 
		CHANNELS 3 Xrotation Yrotation Zrotation
		JOINT __UpLeg_L
		{
			OFFSET 0.000000 0.022872 -0.785740 
			CHANNELS 3 Xrotation Yrotation Zrotation
			JOINT UpLeg_L
			{
				OFFSET 1.020500 -0.049429 -0.185710 
				CHANNELS 3 Xrotation Yrotation Zrotation
				JOINT LoLeg_L
				{
					OFFSET -0.115340 0.263813 -4.255400 
					CHANNELS 3 Xrotation Yrotation Zrotation
					JOINT Foot_L
					{
						OFFSET -0.219506 0.080640 -3.913219 
						CHANNELS 3 Xrotation Yrotation Zrotation
						JOINT Toe_L
						{
							OFFSET 0.022090 -1.132070 -0.644009 
							CHANNELS 3 Xrotation Yrotation Zrotation
							End Site
							{
								OFFSET 0.031489 -0.669111 0.010260 
							}
						}
					}
				}
			}
		}
		JOINT __UpLeg_R
		{
			OFFSET 0.000000 0.022872 -0.785740 
			CHANNELS 3 Xrotation Yrotation Zrotation
			JOINT UpLeg_R
			{
				OFFSET -1.020500 -0.049429 -0.185710 
				CHANNELS 3 Xrotation Yrotation Zrotation
				JOINT LoLeg_R
				{
					OFFSET 0.115340 0.263813 -4.255400 
					CHANNELS 3 Xrotation Yrotation Zrotation
					JOINT Foot_R
					{
						OFFSET 0.219506 0.080640 -3.913219 
						CHANNELS 3 Xrotation Yrotation Zrotation
						JOINT Toe_R
						{
							OFFSET -0.022090 -1.132070 -0.644009 
							CHANNELS 3 Xrotation Yrotation Zrotation
							End Site
							{
								OFFSET -0.031489 -0.669111 0.010260 
							}
						}
					}
				}
			}
		}
	}
}
MOTION
Frames: 5
Frame Time: 0.041667
0.000000 0.000000 0.000001 -3.354723 3.826800 -1.438598 -0.968418 -6.235062 0.485010 17.069798 -0.969532 -0.509194 8.024398 2.055782 -0.430714 -23.157722 2.180373 1.303710 5.650395 3.590696 1.717150 0.000000 -0.000000 0.000000 0.000000 -0.000000 0.000000 0.000001 0.000001 0.000000 -0.000002 0.000000 0.000000 0.000002 0.000000 -0.000000 -0.000001 -0.000000 -0.000000 -0.000003 -0.000001 -0.000002 0.000003 -0.000001 -0.000001 -0.000003 0.000000 0.000000 0.000004 0.000001 0.000001 -0.000005 -0.000001 0.000000 -5.554980 0.590293 3.464540 74.439186 67.108002 -62.210751 -6.998728 -13.876259 -18.432581 -31.122932 9.160879 -17.787565 -0.000002 -0.000000 0.000001 -0.000000 0.000004 -0.000000 0.000002 0.000001 -0.000002 -0.000001 -0.000001 0.000001 -0.000000 0.000000 0.000000 0.000002 -0.000003 0.000001 0.000001 -0.000000 -0.000002 0.000000 0.000001 0.000001 -0.000000 0.000001 -0.000000 0.000000 0.000001 0.000001 0.000001 -0.000000 0.000001 -0.000001 0.000000 -0.000001 0.000001 0.000001 -0.000000 -0.000001 0.000001 0.000002 -0.000001 0.000001 0.000001 0.000001 0.000001 -0.000000 -0.000002 -0.000000 -0.000001 0.000001 0.000001 -0.000001 0.000000 -0.000000 -0.000001 -0.000005 0.000001 -0.000000 -5.348527 -0.208014 -5.417319 56.904842 -49.473984 65.424316 -11.778242 20.605566 32.795803 -25.642185 -8.797784 18.202126 -0.000001 -0.000001 0.000003 0.000002 -0.000004 0.000001 0.000003 -0.000003 -0.000001 0.000000 -0.000000 -0.000004 -0.000000 0.000001 0.000003 0.000000 -0.000001 -0.000000 0.000001 0.000001 0.000004 -0.000000 0.000000 0.000002 -0.000001 -0.000000 0.000002 0.000000 -0.000001 -0.000001 -0.000001 -0.000000 0.000001 -0.000001 0.000000 0.000004 0.000000 -0.000001 -0.000003 -0.000000 0.000000 -0.000000 0.000000 -0.000001 -0.000001 0.000001 0.000000 0.000003 0.000001 -0.000001 -0.000003 -0.000000 -0.000001 -0.000003 -0.000001 -0.000000 0.000001 -0.000003 -0.000000 0.000000 0.000000 -0.000000 0.000000 -32.406548 -3.075941 -3.886630 58.960434 -1.075366 -3.878683 -13.919509 20.262575 14.357331 0.000001 0.000002 0.000001 0.000001 -0.000000 0.000000 -0.591085 -8.319946 3.614982 30.131645 1.008071 2.627586 -23.060310 -20.524105 -7.422676 0.000001 0.000006 -0.000001 
0.000000 0.000000 -0.000002 -2.484736 5.086012 -4.462940 -0.630895 -7.612958 1.282698 17.572977 -0.989173 0.542640 8.489334 2.767345 -0.053844 -23.049316 1.865466 1.385817 3.772066 3.850603 1.990687 0.000002 0.000000 -0.000000 -0.000003 -0.000000 0.000000 0.000001 0.000000 0.000000 -0.000000 0.000000 -0.000000 0.000003 0.000000 -0.000000 -0.000000 -0.000000 0.000000 0.000002 0.000000 -0.000001 0.000000 0.000001 -0.000001 -0.000000 0.000000 0.000000 0.000002 -0.000006 -0.000002 -0.000001 -0.000001 0.000000 -5.554986 0.590291 3.464543 66.705627 74.778938 -51.989277 -5.230882 -9.868298 -11.137220 -28.465391 8.989796 -17.993092 -0.000000 0.000001 -0.000000 0.000001 0.000002 0.000001 0.000007 0.000000 -0.000004 0.000001 -0.000001 0.000003 0.000000 0.000001 -0.000001 0.000001 -0.000001 0.000000 -0.000000 0.000001 -0.000001 -0.000002 0.000000 0.000001 0.000000 0.000000 -0.000000 -0.000001 0.000001 0.000000 -0.000000 -0.000002 -0.000000 0.000001 0.000001 -0.000001 0.000000 0.000001 0.000000 -0.000000 0.000001 -0.000000 -0.000001 -0.000001 -0.000001 0.000002 0.000001 0.000000 0.000001 0.000000 0.000001 -0.000000 -0.000001 0.000000 -0.000002 -0.000001 -0.000001 -0.000001 0.000001 -0.000002 -5.348535 -0.208012 -5.417316 46.156261 -42.524445 62.840446 -16.998699 25.009886 45.192047 -26.419050 -8.851641 18.145473 -0.000003 -0.000001 0.000001 -0.000001 -0.000004 0.000000 0.000000 -0.000003 0.000002 -0.000001 0.000001 -0.000003 -0.000002 -0.000001 0.000001 -0.000002 -0.000002 -0.000001 -0.000001 0.000001 -0.000000 -0.000001 -0.000000 0.000000 -0.000002 -0.000000 0.000001 -0.000002 0.000000 0.000000 0.000001 -0.000001 -0.000001 -0.000003 -0.000001 0.000001 0.000000 -0.000001 -0.000001 -0.000001 0.000000 -0.000001 -0.000000 0.000000 0.000001 -0.000003 -0.000001 0.000001 -0.000003 -0.000001 0.000000 0.000002 0.000000 0.000000 -0.000001 -0.000000 -0.000001 -0.000001 -0.000000 0.000000 0.000001 0.000000 -0.000000 -35.839703 -3.555297 -8.172787 35.825226 -1.051832 -2.809991 -16.391880 18.773788 18.137272 0.000003 0.000004 -0.000000 0.000001 -0.000000 0.000000 10.720992 -7.651438 5.205488 19.083269 1.200950 2.232963 -17.649563 -22.268496 -3.619560 -0.000001 0.000001 -0.000001 
0.000000 0.000000 0.000001 -2.753586 5.495387 -6.841068 -0.740360 -7.822275 1.973712 17.965515 -0.625466 1.382946 9.082114 3.226620 0.312468 -22.043983 0.875024 1.429254 2.211252 4.171103 2.503439 0.000003 -0.000001 0.000000 -0.000000 0.000000 0.000000 -0.000000 0.000000 -0.000000 -0.000000 0.000000 0.000000 0.000001 -0.000000 0.000000 -0.000000 0.000000 0.000000 -0.000002 -0.000000 -0.000000 0.000001 0.000001 -0.000002 0.000002 -0.000001 -0.000001 0.000005 -0.000001 0.000003 -0.000003 -0.000001 0.000001 -5.554983 0.590291 3.464541 50.840027 79.207214 -33.289848 -4.460366 -7.474764 -7.035689 -23.498243 8.645227 -18.354887 -0.000001 0.000001 -0.000000 0.000002 0.000001 0.000000 -0.000000 0.000005 0.000001 -0.000000 0.000000 0.000002 0.000000 0.000004 -0.000000 -0.000002 0.000000 0.000000 0.000001 -0.000000 -0.000001 -0.000001 -0.000002 0.000000 0.000000 0.000001 -0.000000 0.000002 0.000001 0.000000 0.000002 0.000001 0.000000 -0.000001 0.000000 -0.000001 -0.000001 0.000001 0.000000 -0.000001 -0.000000 -0.000000 0.000000 0.000000 -0.000001 0.000001 0.000001 -0.000000 0.000000 -0.000000 -0.000000 -0.000000 -0.000001 -0.000000 -0.000001 0.000001 0.000000 -0.000003 0.000001 -0.000001 -5.348532 -0.208014 -5.417315 38.892822 -40.663158 60.741474 -20.337976 26.936119 52.316158 -25.389465 -8.780102 18.220392 -0.000001 -0.000000 0.000003 0.000003 -0.000004 0.000001 0.000002 -0.000004 0.000002 0.000001 -0.000000 -0.000003 -0.000002 0.000000 0.000004 0.000003 0.000001 -0.000002 -0.000002 0.000001 0.000001 0.000001 -0.000000 0.000001 -0.000001 0.000000 0.000003 -0.000000 -0.000001 -0.000000 0.000002 0.000000 -0.000000 -0.000001 0.000000 0.000003 -0.000002 0.000000 0.000001 -0.000001 -0.000000 0.000001 0.000001 0.000000 -0.000000 -0.000002 0.000000 0.000002 0.000000 -0.000000 -0.000001 -0.000001 -0.000000 -0.000000 0.000000 -0.000000 0.000001 -0.000004 0.000000 0.000000 0.000001 0.000001 -0.000000 -37.003880 -2.250630 -6.238560 29.727947 -1.106579 -2.590190 -19.105680 17.884478 18.039803 0.000003 0.000002 -0.000001 0.000001 -0.000000 0.000000 23.576403 -5.400110 8.251535 8.196782 1.477804 1.886596 -8.964021 -23.020222 -1.468191 -0.000001 0.000006 0.000000 
0.000000 0.000000 0.000000 -2.682160 3.536378 -8.099341 -2.706288 -5.193035 2.527835 17.270489 0.584804 1.983965 9.448542 2.971365 0.794381 -21.664850 1.357988 0.806917 2.724759 2.035090 1.552113 0.000000 0.000000 0.000000 -0.000000 -0.000000 -0.000000 -0.000003 0.000000 0.000000 -0.000005 0.000000 -0.000000 0.000001 0.000000 0.000000 -0.000001 -0.000000 -0.000000 0.000001 0.000001 0.000001 -0.000001 0.000001 -0.000002 0.000001 0.000002 0.000003 0.000005 -0.000006 0.000002 -0.000002 -0.000001 0.000001 -5.554983 0.590291 3.464544 18.700539 80.935638 0.412760 -4.120691 -6.172133 -4.860690 -19.857817 8.373379 -18.600258 0.000000 -0.000001 -0.000001 0.000003 0.000003 0.000002 -0.000001 0.000003 -0.000004 0.000000 0.000001 0.000000 0.000001 0.000001 -0.000001 0.000001 0.000002 0.000001 0.000001 -0.000002 0.000001 -0.000001 0.000000 0.000001 0.000001 -0.000000 -0.000000 0.000000 0.000001 0.000001 0.000001 0.000000 -0.000000 -0.000000 -0.000000 -0.000001 0.000002 0.000000 -0.000000 -0.000000 -0.000001 0.000000 0.000000 0.000001 -0.000000 -0.000000 -0.000000 -0.000000 0.000001 -0.000001 -0.000001 -0.000001 0.000000 0.000000 -0.000001 -0.000001 -0.000000 -0.000005 0.000001 -0.000001 -5.348530 -0.208015 -5.417315 40.590439 -41.679222 59.196327 -22.607527 27.953741 56.942490 -25.686111 -8.673518 18.209867 -0.000000 0.000001 0.000001 0.000002 -0.000004 0.000001 0.000004 -0.000003 0.000004 0.000002 0.000001 -0.000003 0.000003 0.000001 0.000002 -0.000002 -0.000003 -0.000001 0.000002 0.000001 0.000001 -0.000000 -0.000000 -0.000000 0.000003 0.000001 0.000002 -0.000001 -0.000001 -0.000000 0.000001 0.000000 0.000000 0.000000 0.000001 0.000002 0.000002 0.000000 0.000000 0.000000 -0.000000 0.000000 0.000000 -0.000000 0.000000 0.000003 0.000001 0.000002 0.000001 0.000000 0.000000 -0.000000 -0.000000 -0.000001 -0.000002 0.000000 0.000001 -0.000006 -0.000000 -0.000000 0.000001 0.000000 -0.000000 -36.932163 -1.887162 -2.072737 40.322014 -1.026518 -2.975110 -12.994820 19.803268 18.407032 0.000001 -0.000000 -0.000000 0.000001 -0.000000 0.000000 22.407639 -1.795404 8.840522 23.755184 1.182588 2.381699 -0.366887 -23.243326 1.132211 -0.000002 0.000006 0.000000 
0.000000 0.000000 0.000000 -3.603104 -0.732812 -7.503203 -2.501699 -1.098861 2.208711 17.541595 2.297606 1.003087 8.944157 2.519277 0.626140 -21.737535 2.301088 0.699431 0.776624 0.504736 1.050116 0.000000 0.000000 -0.000000 0.000003 0.000000 -0.000000 -0.000001 -0.000000 0.000000 0.000000 -0.000000 0.000000 -0.000002 0.000000 0.000000 -0.000000 -0.000000 0.000000 -0.000000 -0.000000 -0.000000 0.000004 0.000004 0.000000 -0.000000 0.000000 0.000000 0.000000 -0.000002 -0.000000 -0.000003 -0.000001 -0.000001 -5.554982 0.590293 3.464540 -9.871831 77.870277 22.897200 -4.408217 -5.779071 -3.720418 -13.771779 7.885609 -18.970070 -0.000001 0.000001 -0.000000 0.000003 0.000003 0.000002 0.000002 0.000003 -0.000002 0.000001 0.000000 0.000002 -0.000000 0.000002 -0.000000 0.000000 0.000000 0.000002 0.000000 -0.000000 -0.000001 0.000001 -0.000001 0.000000 0.000000 0.000001 0.000000 -0.000002 0.000002 -0.000000 0.000000 0.000000 -0.000000 0.000001 0.000001 -0.000000 0.000000 -0.000002 0.000000 -0.000001 -0.000000 0.000000 0.000000 -0.000000 -0.000000 0.000001 0.000001 -0.000000 -0.000001 -0.000000 0.000001 0.000001 0.000001 0.000000 -0.000000 0.000001 -0.000001 -0.000001 0.000001 0.000001 -5.348531 -0.208015 -5.417319 47.874451 -44.777588 61.976448 -21.854940 27.125435 52.413208 -26.924799 -8.886290 18.108204 -0.000001 0.000001 0.000001 0.000000 -0.000002 -0.000001 -0.000001 -0.000004 0.000002 0.000001 0.000001 -0.000002 0.000001 -0.000001 0.000001 0.000002 -0.000001 -0.000003 0.000000 0.000001 0.000001 0.000001 0.000000 0.000001 -0.000001 0.000001 0.000001 0.000001 -0.000000 0.000000 0.000001 0.000001 0.000000 -0.000001 0.000001 0.000001 -0.000000 -0.000000 -0.000000 0.000000 0.000000 0.000001 0.000001 0.000000 -0.000001 0.000000 0.000001 0.000000 -0.000000 -0.000001 -0.000001 -0.000001 -0.000002 -0.000001 0.000002 -0.000000 0.000001 -0.000003 0.000000 0.000000 0.000001 0.000001 -0.000000 -32.788506 2.407354 2.819599 47.965366 -1.054072 -3.258048 -15.117765 20.144684 13.421772 -0.000001 0.000007 0.000000 0.000001 -0.000000 0.000000 8.209553 2.162201 8.055806 52.892067 0.879022 3.408026 20.413225 -22.791702 1.123027 -0.000002 0.000006 -0.000000 
